<?xml version="1.0" encoding="UTF-8" standalone="no"?>
<svg
   xmlns:dc="http://purl.org/dc/elements/1.1/"
   xmlns:cc="http://creativecommons.org/ns#"
   xmlns:rdf="http://www.w3.org/1999/02/22-rdf-syntax-ns#"
   xmlns:svg="http://www.w3.org/2000/svg"
   xmlns="http://www.w3.org/2000/svg"
   xmlns:sodipodi="http://sodipodi.sourceforge.net/DTD/sodipodi-0.dtd"
   xmlns:inkscape="http://www.inkscape.org/namespaces/inkscape"
   width="64"
   height="64"
   viewBox="0 0 16.933333 16.933334"
   version="1.1"
   id="svg3740"
   sodipodi:docname="logo.svg"
   inkscape:version="1.0.2 (e86c870879, 2021-01-15, custom)">
  <defs
     id="defs3734">
    <filter
       inkscape:collect="always"
       style="color-interpolation-filters:sRGB"
       id="filter4859"
       x="-0.072176067"
       width="1.1443521"
       y="-0.049004399"
       height="1.0980088">
      <feGaussianBlur
         inkscape:collect="always"
         stdDeviation="0.11576286"
         id="feGaussianBlur4861" />
    </filter>
  </defs>
  <sodipodi:namedview
     id="base"
     pagecolor="#ffffff"
     bordercolor="#666666"
     borderopacity="1.0"
     inkscape:pageopacity="0.0"
     inkscape:pageshadow="2"
     inkscape:zoom="5.6"
     inkscape:cx="36.469782"
     inkscape:cy="22.992684"
     inkscape:document-units="mm"
     inkscape:current-layer="layer1"
     inkscape:document-rotation="0"
     showgrid="false"
     units="px"
     inkscape:object-nodes="false"
     inkscape:window-width="1920"
     inkscape:window-height="1017"
     inkscape:window-x="1912"
     inkscape:window-y="-8"
     inkscape:window-maximized="1" />
  <metadata
     id="metadata3737">
    <rdf:RDF>
      <cc:Work
         rdf:about="">
        <dc:format>image/svg+xml</dc:format>
        <dc:type
           rdf:resource="http://purl.org/dc/dcmitype/StillImage" />
        <dc:title></dc:title>
      </cc:Work>
    </rdf:RDF>
  </metadata>
  <g
     inkscape:groupmode="layer"
     id="layer5"
     inkscape:label="Layer-1" />
  <g
     inkscape:label="Layer 1"
     inkscape:groupmode="layer"
     id="layer1"
     style="display:inline">
    <path
       sodipodi:type="star"
       style="mix-blend-mode:normal;fill:none;fill-opacity:1;stroke:#000000;stroke-width:0.272275;stroke-linecap:round;stroke-linejoin:bevel;stroke-miterlimit:4;stroke-dasharray:none;stroke-opacity:1"
       id="path5117"
       sodipodi:sides="6"
       sodipodi:cx="8.3098097"
       sodipodi:cy="8.4557619"
       sodipodi:r1="5.5554891"
       sodipodi:r2="5.5447416"
       sodipodi:arg1="1.5707963"
       sodipodi:arg2="2.4885075"
       inkscape:flatsided="false"
       inkscape:rounded="0"
       inkscape:randomized="0"
       d="M 8.3098098,14.011251 3.9061042,11.824966 3.4986151,11.233507 3.1901404,6.3266433 3.498615,5.6780175 7.5938458,2.9574389 l 0.7159637,-0.057166 4.4037055,2.1862847 0.407489,0.5914597 0.308475,4.9068638 -0.308475,0.648625 -4.0952305,2.720579 z"
       transform="matrix(0.99674383,0.07013892,-0.07313287,0.95593854,0.80226501,-0.20064995)" />
  </g>
  <g
     inkscape:groupmode="layer"
     id="layer3"
     inkscape:label="Layer 2">
    <path
       style="fill:#000000;fill-opacity:1;stroke:#000000;stroke-width:0.269025;stroke-linecap:butt;stroke-linejoin:bevel;stroke-miterlimit:4;stroke-dasharray:none;stroke-opacity:1;"
       d="m 8.8287884,12.008662 -3e-6,-4.1150774 0.4648213,-0.176803 1.3593783,2.4356464 0.233989,-0.11515 0.944198,-3.0699723 0.83744,-0.3689605 -0.02021,4.6091148 -0.535556,0.242514 0.12351,-3.8722473 -0.100351,0.1635124 -0.87196,3.0251259 -0.747756,0.277367 -1.1014241,-1.9442614 v 0 l 0.010108,3.3058554 -0.5759746,0.326432 z"
       id="path4433-0-0"
       sodipodi:nodetypes="cccccccccccccccccc" />
    <path
       id="path4431"
       style="fill:#000000;fill-opacity:1;stroke:#000000;stroke-width:0.272922;stroke-linecap:butt;stroke-linejoin:bevel;stroke-miterlimit:4;stroke-dasharray:none;stroke-opacity:1;"
       d="m 4.2925793,6.5508368 -0.00216,4.5757102 2.9049968,1.705961 1.0653792,-0.41325 L 8.2458083,9.3857424 7.5336523,8.104878 Z m 0.588706,1.1972389 2.1378951,1.0258065 0.4702511,0.844618 0.00999,2.0014378 -0.7028793,0.27248 -1.9316696,-1.169364 z" />
    <path
       style="fill:#000000;fill-opacity:1;stroke-width:0.0120568;"
       d=""
       id="path4455" />
    <path
       id="path4461"
       style="mix-blend-mode:normal;fill:#000000;fill-opacity:1;stroke:#000000;stroke-width:0.261457;stroke-linecap:round;stroke-linejoin:bevel;stroke-miterlimit:4;stroke-dasharray:none;stroke-opacity:1"
       d="m 8.7727126,3.8405604 -0.7655613,-0.0064 c -0.098774,0.04749 -3.5993906,1.9371832 -3.5993906,1.9371832 l 0.011617,0.3218475 1.1256398,0.502164 3.8976189,0.029233 -0.00145,0.5957107 0.8024716,-0.242312 -0.0015,-0.346902 0.9833,0.00714 1.412496,-0.5281492 -0.417576,-0.064312 -0.9499,-0.018187 -1.031232,-6.65e-4 0.02831,-1.4649979 L 9.4568036,4.0985391 9.4440914,6.0262627 6.1303528,6.0243027 5.5885934,5.8105746 8.0947671,4.4939682 Z"
       sodipodi:nodetypes="ccccccccccccccccccccc" />
  </g>
  <g
     inkscape:groupmode="layer"
     id="layer4"
     inkscape:label="Layer 3" />
</svg>
